{
	"asset":{
		"generator":"Khronos glTF Blender I/O v4.0.43",
		"version":"2.0"
	},
	"scene":0,
	"scenes":[
		{
			"name":"Scene",
			"nodes":[
				0,
				1,
				2,
				3,
				4,
				5,
				6,
				7,
				8,
				9,
				10,
				11,
				12,
				13
			]
		}
	],
	"nodes":[
		{
			"mesh":0,
			"name":"Dirt MountT5"
		},
		{
			"mesh":1,
			"name":"Dirt MountT1",
			"rotation":[
				0,
				-1,
				0,
				1.9470718370939721e-07
			]
		},
		{
			"mesh":2,
			"name":"Dirt MountT2"
		},
		{
			"mesh":3,
			"name":"Dirt MountT3"
		},
		{
			"mesh":4,
			"name":"Dirt MountT4"
		},
		{
			"mesh":5,
			"name":"Dirt MountT6"
		},
		{
			"mesh":6,
			"name":"RockT4"
		},
		{
			"mesh":7,
			"name":"RockT3"
		},
		{
			"mesh":8,
			"name":"RockT2"
		},
		{
			"mesh":9,
			"name":"RockT1"
		},
		{
			"mesh":10,
			"name":"Hedge2"
		},
		{
			"mesh":11,
			"name":"Hedge1"
		},
		{
			"mesh":12,
			"name":"TreeT1"
		},
		{
			"mesh":13,
			"name":"TreeT2"
		}
	],
	"materials":[
		{
			"doubleSided":true,
			"name":"M_Grass",
			"pbrMetallicRoughness":{
				"baseColorFactor":[
					0.10168863832950592,
					0.47086066007614136,
					0.07716568559408188,
					1
				],
				"metallicFactor":0,
				"roughnessFactor":0.5
			}
		},
		{
			"doubleSided":true,
			"name":"M_Rock",
			"pbrMetallicRoughness":{
				"baseColorFactor":[
					0.12767325341701508,
					0.19859546422958374,
					0.1803491711616516,
					1
				],
				"metallicFactor":0,
				"roughnessFactor":0.5
			}
		},
		{
			"doubleSided":true,
			"name":"M_Hedge",
			"pbrMetallicRoughness":{
				"baseColorFactor":[
					0.0047111655585467815,
					0.16971692442893982,
					0,
					1
				],
				"metallicFactor":0,
				"roughnessFactor":0.5
			}
		}
	],
	"meshes":[
		{
			"name":"Dirt MountT5",
			"primitives":[
				{
					"attributes":{
						"COLOR_0":0,
						"POSITION":1,
						"NORMAL":2
					},
					"indices":3,
					"material":0
				}
			]
		},
		{
			"name":"Dirt MountT1",
			"primitives":[
				{
					"attributes":{
						"POSITION":4,
						"NORMAL":5
					},
					"indices":6,
					"material":0
				}
			]
		},
		{
			"name":"Dirt MountT2",
			"primitives":[
				{
					"attributes":{
						"POSITION":7,
						"NORMAL":8
					},
					"indices":9,
					"material":0
				}
			]
		},
		{
			"name":"Dirt MountT3",
			"primitives":[
				{
					"attributes":{
						"POSITION":10,
						"NORMAL":11
					},
					"indices":12,
					"material":0
				}
			]
		},
		{
			"name":"Dirt MountT4",
			"primitives":[
				{
					"attributes":{
						"POSITION":13,
						"NORMAL":14
					},
					"indices":15,
					"material":0
				}
			]
		},
		{
			"name":"Dirt MountT6",
			"primitives":[
				{
					"attributes":{
						"COLOR_0":16,
						"POSITION":17,
						"NORMAL":18
					},
					"indices":19,
					"material":0
				}
			]
		},
		{
			"name":"RockT4",
			"primitives":[
				{
					"attributes":{
						"POSITION":20,
						"NORMAL":21
					},
					"indices":22,
					"material":1
				}
			]
		},
		{
			"name":"RockT3",
			"primitives":[
				{
					"attributes":{
						"COLOR_0":23,
						"POSITION":24,
						"NORMAL":25
					},
					"indices":26,
					"material":1
				}
			]
		},
		{
			"name":"RockT2",
			"primitives":[
				{
					"attributes":{
						"POSITION":27,
						"NORMAL":28
					},
					"indices":29,
					"material":1
				}
			]
		},
		{
			"name":"RockT1",
			"primitives":[
				{
					"attributes":{
						"POSITION":30,
						"NORMAL":31
					},
					"indices":32,
					"material":1
				}
			]
		},
		{
			"name":"HedgeS",
			"primitives":[
				{
					"attributes":{
						"POSITION":33,
						"NORMAL":34,
						"TEXCOORD_0":35
					},
					"indices":36,
					"material":2
				}
			]
		},
		{
			"name":"HedgeL",
			"primitives":[
				{
					"attributes":{
						"POSITION":37,
						"NORMAL":38,
						"TEXCOORD_0":39
					},
					"indices":36,
					"material":2
				}
			]
		},
		{
			"name":"TreeT1",
			"primitives":[
				{
					"attributes":{
						"POSITION":40,
						"NORMAL":41,
						"TEXCOORD_0":42
					},
					"indices":43
				}
			]
		},
		{
			"name":"TreeT2",
			"primitives":[
				{
					"attributes":{
						"POSITION":44,
						"NORMAL":45,
						"TEXCOORD_0":46
					},
					"indices":47
				}
			]
		}
	],
	"accessors":[
		{
			"bufferView":0,
			"componentType":5123,
			"count":1253,
			"normalized":true,
			"type":"VEC4"
		},
		{
			"bufferView":1,
			"componentType":5126,
			"count":1253,
			"max":[
				22.231185913085938,
				8.718098640441895,
				15.792831420898438
			],
			"min":[
				-22.95018196105957,
				-6.021371841430664,
				-14.16946792602539
			],
			"type":"VEC3"
		},
		{
			"bufferView":2,
			"componentType":5126,
			"count":1253,
			"type":"VEC3"
		},
		{
			"bufferView":3,
			"componentType":5123,
			"count":7506,
			"type":"SCALAR"
		},
		{
			"bufferView":4,
			"componentType":5126,
			"count":1740,
			"max":[
				25.378664016723633,
				4.913370609283447,
				12.821459770202637
			],
			"min":[
				-20.4826602935791,
				-5.493374347686768,
				-12.588277816772461
			],
			"type":"VEC3"
		},
		{
			"bufferView":5,
			"componentType":5126,
			"count":1740,
			"type":"VEC3"
		},
		{
			"bufferView":6,
			"componentType":5123,
			"count":10428,
			"type":"SCALAR"
		},
		{
			"bufferView":7,
			"componentType":5126,
			"count":434,
			"max":[
				11.749777793884277,
				1.734413981437683,
				20.556137084960938
			],
			"min":[
				-12.666952133178711,
				-2.8396995067596436,
				-20.552566528320312
			],
			"type":"VEC3"
		},
		{
			"bufferView":8,
			"componentType":5126,
			"count":434,
			"type":"VEC3"
		},
		{
			"bufferView":9,
			"componentType":5123,
			"count":2592,
			"type":"SCALAR"
		},
		{
			"bufferView":10,
			"componentType":5126,
			"count":2238,
			"max":[
				26.17646598815918,
				5.5090765953063965,
				26.086524963378906
			],
			"min":[
				-29.265127182006836,
				-4.993175029754639,
				-20.086402893066406
			],
			"type":"VEC3"
		},
		{
			"bufferView":11,
			"componentType":5126,
			"count":2238,
			"type":"VEC3"
		},
		{
			"bufferView":12,
			"componentType":5123,
			"count":13416,
			"type":"SCALAR"
		},
		{
			"bufferView":13,
			"componentType":5126,
			"count":836,
			"max":[
				14.923237800598145,
				9.9296293258667,
				15.142980575561523
			],
			"min":[
				-14.911702156066895,
				-5.987594127655029,
				-14.897035598754883
			],
			"type":"VEC3"
		},
		{
			"bufferView":14,
			"componentType":5126,
			"count":836,
			"type":"VEC3"
		},
		{
			"bufferView":15,
			"componentType":5123,
			"count":5004,
			"type":"SCALAR"
		},
		{
			"bufferView":16,
			"componentType":5123,
			"count":1148,
			"normalized":true,
			"type":"VEC4"
		},
		{
			"bufferView":17,
			"componentType":5126,
			"count":1148,
			"max":[
				18.469369888305664,
				9.270822525024414,
				21.415145874023438
			],
			"min":[
				-24.438940048217773,
				-6.156161785125732,
				-22.019245147705078
			],
			"type":"VEC3"
		},
		{
			"bufferView":18,
			"componentType":5126,
			"count":1148,
			"type":"VEC3"
		},
		{
			"bufferView":19,
			"componentType":5123,
			"count":6876,
			"type":"SCALAR"
		},
		{
			"bufferView":20,
			"componentType":5126,
			"count":684,
			"max":[
				8.602670669555664,
				5.356298923492432,
				10.033148765563965
			],
			"min":[
				-8.40343189239502,
				-5.194396018981934,
				-9.796510696411133
			],
			"type":"VEC3"
		},
		{
			"bufferView":21,
			"componentType":5126,
			"count":684,
			"type":"VEC3"
		},
		{
			"bufferView":22,
			"componentType":5123,
			"count":4092,
			"type":"SCALAR"
		},
		{
			"bufferView":23,
			"componentType":5123,
			"count":1134,
			"normalized":true,
			"type":"VEC4"
		},
		{
			"bufferView":24,
			"componentType":5126,
			"count":1134,
			"max":[
				10.820816993713379,
				8.161643981933594,
				20.47440528869629
			],
			"min":[
				-9.319692611694336,
				-8.605405807495117,
				-16.80284881591797
			],
			"type":"VEC3"
		},
		{
			"bufferView":25,
			"componentType":5126,
			"count":1134,
			"type":"VEC3"
		},
		{
			"bufferView":26,
			"componentType":5123,
			"count":6792,
			"type":"SCALAR"
		},
		{
			"bufferView":27,
			"componentType":5126,
			"count":492,
			"max":[
				8.66357135772705,
				4.22610330581665,
				8.999242782592773
			],
			"min":[
				-7.4552903175354,
				-2.870450973510742,
				-8.4187650680542
			],
			"type":"VEC3"
		},
		{
			"bufferView":28,
			"componentType":5126,
			"count":492,
			"type":"VEC3"
		},
		{
			"bufferView":29,
			"componentType":5123,
			"count":2940,
			"type":"SCALAR"
		},
		{
			"bufferView":30,
			"componentType":5126,
			"count":1328,
			"max":[
				8.657413482666016,
				4.549683094024658,
				16.82088279724121
			],
			"min":[
				-7.172050476074219,
				-3.6787679195404053,
				-14.18541431427002
			],
			"type":"VEC3"
		},
		{
			"bufferView":31,
			"componentType":5126,
			"count":1328,
			"type":"VEC3"
		},
		{
			"bufferView":32,
			"componentType":5123,
			"count":7956,
			"type":"SCALAR"
		},
		{
			"bufferView":33,
			"componentType":5126,
			"count":307,
			"max":[
				5.425820350646973,
				3.778205394744873,
				1.222792625427246
			],
			"min":[
				-5.425820350646973,
				0,
				-1.2228018045425415
			],
			"type":"VEC3"
		},
		{
			"bufferView":34,
			"componentType":5126,
			"count":307,
			"type":"VEC3"
		},
		{
			"bufferView":35,
			"componentType":5126,
			"count":307,
			"type":"VEC2"
		},
		{
			"bufferView":36,
			"componentType":5123,
			"count":1584,
			"type":"SCALAR"
		},
		{
			"bufferView":37,
			"componentType":5126,
			"count":307,
			"max":[
				10.851640701293945,
				3.778205394744873,
				1.222792625427246
			],
			"min":[
				-10.851640701293945,
				0,
				-1.2228018045425415
			],
			"type":"VEC3"
		},
		{
			"bufferView":38,
			"componentType":5126,
			"count":307,
			"type":"VEC3"
		},
		{
			"bufferView":39,
			"componentType":5126,
			"count":307,
			"type":"VEC2"
		},
		{
			"bufferView":40,
			"componentType":5126,
			"count":516,
			"max":[
				3.2864418029785156,
				8.693618774414062,
				2.9166758060455322
			],
			"min":[
				-2.980617046356201,
				-0.11455272883176804,
				-3.292055130004883
			],
			"type":"VEC3"
		},
		{
			"bufferView":41,
			"componentType":5126,
			"count":516,
			"type":"VEC3"
		},
		{
			"bufferView":42,
			"componentType":5126,
			"count":516,
			"type":"VEC2"
		},
		{
			"bufferView":43,
			"componentType":5123,
			"count":1554,
			"type":"SCALAR"
		},
		{
			"bufferView":44,
			"componentType":5126,
			"count":1880,
			"max":[
				7.275298118591309,
				10.641674041748047,
				5.455339431762695
			],
			"min":[
				-6.306750297546387,
				0.06666354089975357,
				-6.640186786651611
			],
			"type":"VEC3"
		},
		{
			"bufferView":45,
			"componentType":5126,
			"count":1880,
			"type":"VEC3"
		},
		{
			"bufferView":46,
			"componentType":5126,
			"count":1880,
			"type":"VEC2"
		},
		{
			"bufferView":47,
			"componentType":5123,
			"count":9864,
			"type":"SCALAR"
		}
	],
	"bufferViews":[
		{
			"buffer":0,
			"byteLength":10024,
			"byteOffset":0,
			"target":34962
		},
		{
			"buffer":0,
			"byteLength":15036,
			"byteOffset":10024,
			"target":34962
		},
		{
			"buffer":0,
			"byteLength":15036,
			"byteOffset":25060,
			"target":34962
		},
		{
			"buffer":0,
			"byteLength":15012,
			"byteOffset":40096,
			"target":34963
		},
		{
			"buffer":0,
			"byteLength":20880,
			"byteOffset":55108,
			"target":34962
		},
		{
			"buffer":0,
			"byteLength":20880,
			"byteOffset":75988,
			"target":34962
		},
		{
			"buffer":0,
			"byteLength":20856,
			"byteOffset":96868,
			"target":34963
		},
		{
			"buffer":0,
			"byteLength":5208,
			"byteOffset":117724,
			"target":34962
		},
		{
			"buffer":0,
			"byteLength":5208,
			"byteOffset":122932,
			"target":34962
		},
		{
			"buffer":0,
			"byteLength":5184,
			"byteOffset":128140,
			"target":34963
		},
		{
			"buffer":0,
			"byteLength":26856,
			"byteOffset":133324,
			"target":34962
		},
		{
			"buffer":0,
			"byteLength":26856,
			"byteOffset":160180,
			"target":34962
		},
		{
			"buffer":0,
			"byteLength":26832,
			"byteOffset":187036,
			"target":34963
		},
		{
			"buffer":0,
			"byteLength":10032,
			"byteOffset":213868,
			"target":34962
		},
		{
			"buffer":0,
			"byteLength":10032,
			"byteOffset":223900,
			"target":34962
		},
		{
			"buffer":0,
			"byteLength":10008,
			"byteOffset":233932,
			"target":34963
		},
		{
			"buffer":0,
			"byteLength":9184,
			"byteOffset":243940,
			"target":34962
		},
		{
			"buffer":0,
			"byteLength":13776,
			"byteOffset":253124,
			"target":34962
		},
		{
			"buffer":0,
			"byteLength":13776,
			"byteOffset":266900,
			"target":34962
		},
		{
			"buffer":0,
			"byteLength":13752,
			"byteOffset":280676,
			"target":34963
		},
		{
			"buffer":0,
			"byteLength":8208,
			"byteOffset":294428,
			"target":34962
		},
		{
			"buffer":0,
			"byteLength":8208,
			"byteOffset":302636,
			"target":34962
		},
		{
			"buffer":0,
			"byteLength":8184,
			"byteOffset":310844,
			"target":34963
		},
		{
			"buffer":0,
			"byteLength":9072,
			"byteOffset":319028,
			"target":34962
		},
		{
			"buffer":0,
			"byteLength":13608,
			"byteOffset":328100,
			"target":34962
		},
		{
			"buffer":0,
			"byteLength":13608,
			"byteOffset":341708,
			"target":34962
		},
		{
			"buffer":0,
			"byteLength":13584,
			"byteOffset":355316,
			"target":34963
		},
		{
			"buffer":0,
			"byteLength":5904,
			"byteOffset":368900,
			"target":34962
		},
		{
			"buffer":0,
			"byteLength":5904,
			"byteOffset":374804,
			"target":34962
		},
		{
			"buffer":0,
			"byteLength":5880,
			"byteOffset":380708,
			"target":34963
		},
		{
			"buffer":0,
			"byteLength":15936,
			"byteOffset":386588,
			"target":34962
		},
		{
			"buffer":0,
			"byteLength":15936,
			"byteOffset":402524,
			"target":34962
		},
		{
			"buffer":0,
			"byteLength":15912,
			"byteOffset":418460,
			"target":34963
		},
		{
			"buffer":0,
			"byteLength":3684,
			"byteOffset":434372,
			"target":34962
		},
		{
			"buffer":0,
			"byteLength":3684,
			"byteOffset":438056,
			"target":34962
		},
		{
			"buffer":0,
			"byteLength":2456,
			"byteOffset":441740,
			"target":34962
		},
		{
			"buffer":0,
			"byteLength":3168,
			"byteOffset":444196,
			"target":34963
		},
		{
			"buffer":0,
			"byteLength":3684,
			"byteOffset":447364,
			"target":34962
		},
		{
			"buffer":0,
			"byteLength":3684,
			"byteOffset":451048,
			"target":34962
		},
		{
			"buffer":0,
			"byteLength":2456,
			"byteOffset":454732,
			"target":34962
		},
		{
			"buffer":0,
			"byteLength":6192,
			"byteOffset":457188,
			"target":34962
		},
		{
			"buffer":0,
			"byteLength":6192,
			"byteOffset":463380,
			"target":34962
		},
		{
			"buffer":0,
			"byteLength":4128,
			"byteOffset":469572,
			"target":34962
		},
		{
			"buffer":0,
			"byteLength":3108,
			"byteOffset":473700,
			"target":34963
		},
		{
			"buffer":0,
			"byteLength":22560,
			"byteOffset":476808,
			"target":34962
		},
		{
			"buffer":0,
			"byteLength":22560,
			"byteOffset":499368,
			"target":34962
		},
		{
			"buffer":0,
			"byteLength":15040,
			"byteOffset":521928,
			"target":34962
		},
		{
			"buffer":0,
			"byteLength":19728,
			"byteOffset":536968,
			"target":34963
		}
	],
	"buffers":[
		{
			"byteLength":556696,
			"uri":"SM_ENV_.bin"
		}
	]
}
