{
	"asset":{
		"generator":"Khronos glTF Blender I/O v4.0.43",
		"version":"2.0"
	},
	"scene":0,
	"scenes":[
		{
			"name":"Scene",
			"nodes":[
				0,
				1,
				2,
				3,
				4,
				5,
				6,
				7,
				8,
				9,
				10,
				11
			]
		}
	],
	"nodes":[
		{
			"mesh":0,
			"name":"Dirt MountT5"
		},
		{
			"mesh":1,
			"name":"Dirt MountT1"
		},
		{
			"mesh":2,
			"name":"Dirt MountT2"
		},
		{
			"mesh":3,
			"name":"Dirt MountT3"
		},
		{
			"mesh":4,
			"name":"Dirt MountT4"
		},
		{
			"mesh":5,
			"name":"Dirt MountT6"
		},
		{
			"mesh":6,
			"name":"RockT4"
		},
		{
			"mesh":7,
			"name":"RockT3"
		},
		{
			"mesh":8,
			"name":"RockT2"
		},
		{
			"mesh":9,
			"name":"RockT1"
		},
		{
			"mesh":10,
			"name":"Hedge2"
		},
		{
			"mesh":11,
			"name":"Hedge1"
		}
	],
	"meshes":[
		{
			"name":"Dirt MountT5",
			"primitives":[
				{
					"attributes":{
						"POSITION":0,
						"NORMAL":1
					},
					"indices":2
				}
			]
		},
		{
			"name":"Dirt MountT1",
			"primitives":[
				{
					"attributes":{
						"POSITION":3,
						"NORMAL":4
					},
					"indices":5
				}
			]
		},
		{
			"name":"Dirt MountT2",
			"primitives":[
				{
					"attributes":{
						"POSITION":6,
						"NORMAL":7
					},
					"indices":8
				}
			]
		},
		{
			"name":"Dirt MountT3",
			"primitives":[
				{
					"attributes":{
						"POSITION":9,
						"NORMAL":10
					},
					"indices":11
				}
			]
		},
		{
			"name":"Dirt MountT4",
			"primitives":[
				{
					"attributes":{
						"POSITION":12,
						"NORMAL":13
					},
					"indices":14
				}
			]
		},
		{
			"name":"Dirt MountT6",
			"primitives":[
				{
					"attributes":{
						"POSITION":15,
						"NORMAL":16
					},
					"indices":17
				}
			]
		},
		{
			"name":"RockT4",
			"primitives":[
				{
					"attributes":{
						"POSITION":18,
						"NORMAL":19
					},
					"indices":20
				}
			]
		},
		{
			"name":"RockT3",
			"primitives":[
				{
					"attributes":{
						"POSITION":21,
						"NORMAL":22
					},
					"indices":23
				}
			]
		},
		{
			"name":"RockT2",
			"primitives":[
				{
					"attributes":{
						"POSITION":24,
						"NORMAL":25
					},
					"indices":26
				}
			]
		},
		{
			"name":"RockT1",
			"primitives":[
				{
					"attributes":{
						"POSITION":27,
						"NORMAL":28
					},
					"indices":29
				}
			]
		},
		{
			"name":"HedgeS",
			"primitives":[
				{
					"attributes":{
						"POSITION":30,
						"NORMAL":31,
						"TEXCOORD_0":32
					},
					"indices":33
				}
			]
		},
		{
			"name":"HedgeL",
			"primitives":[
				{
					"attributes":{
						"POSITION":34,
						"NORMAL":35,
						"TEXCOORD_0":36
					},
					"indices":33
				}
			]
		}
	],
	"accessors":[
		{
			"bufferView":0,
			"componentType":5126,
			"count":280,
			"max":[
				22.780990600585938,
				11.105829238891602,
				16.1705379486084
			],
			"min":[
				-23.29389190673828,
				-6.442339897155762,
				-15.050505638122559
			],
			"type":"VEC3"
		},
		{
			"bufferView":1,
			"componentType":5126,
			"count":280,
			"type":"VEC3"
		},
		{
			"bufferView":2,
			"componentType":5123,
			"count":1668,
			"type":"SCALAR"
		},
		{
			"bufferView":3,
			"componentType":5126,
			"count":396,
			"max":[
				12.692126274108887,
				5.166868686676025,
				26.523727416992188
			],
			"min":[
				-14.017951011657715,
				-5.830188751220703,
				-20.778779983520508
			],
			"type":"VEC3"
		},
		{
			"bufferView":4,
			"componentType":5126,
			"count":396,
			"type":"VEC3"
		},
		{
			"bufferView":5,
			"componentType":5123,
			"count":2364,
			"type":"SCALAR"
		},
		{
			"bufferView":6,
			"componentType":5126,
			"count":95,
			"max":[
				12.91352367401123,
				1.7449212074279785,
				21.74507713317871
			],
			"min":[
				-13.609636306762695,
				-3.282055616378784,
				-21.625978469848633
			],
			"type":"VEC3"
		},
		{
			"bufferView":7,
			"componentType":5126,
			"count":95,
			"type":"VEC3"
		},
		{
			"bufferView":8,
			"componentType":5123,
			"count":558,
			"type":"SCALAR"
		},
		{
			"bufferView":9,
			"componentType":5126,
			"count":495,
			"max":[
				26.355859756469727,
				5.697876453399658,
				26.40385627746582
			],
			"min":[
				-30.340370178222656,
				-5.185287952423096,
				-20.146413803100586
			],
			"type":"VEC3"
		},
		{
			"bufferView":10,
			"componentType":5126,
			"count":495,
			"type":"VEC3"
		},
		{
			"bufferView":11,
			"componentType":5123,
			"count":2958,
			"type":"SCALAR"
		},
		{
			"bufferView":12,
			"componentType":5126,
			"count":185,
			"max":[
				15.279603958129883,
				9.423924446105957,
				15.637771606445312
			],
			"min":[
				-15.315047264099121,
				-6.788312911987305,
				-15.066987037658691
			],
			"type":"VEC3"
		},
		{
			"bufferView":13,
			"componentType":5126,
			"count":185,
			"type":"VEC3"
		},
		{
			"bufferView":14,
			"componentType":5123,
			"count":1098,
			"type":"SCALAR"
		},
		{
			"bufferView":15,
			"componentType":5126,
			"count":257,
			"max":[
				18.75537872314453,
				9.52086067199707,
				22.338010787963867
			],
			"min":[
				-24.958765029907227,
				-6.885941982269287,
				-23.00625228881836
			],
			"type":"VEC3"
		},
		{
			"bufferView":16,
			"componentType":5126,
			"count":257,
			"type":"VEC3"
		},
		{
			"bufferView":17,
			"componentType":5123,
			"count":1530,
			"type":"SCALAR"
		},
		{
			"bufferView":18,
			"componentType":5126,
			"count":682,
			"max":[
				8.814445495605469,
				6.010861396789551,
				10.15255069732666
			],
			"min":[
				-8.665475845336914,
				-5.618897438049316,
				-10.150678634643555
			],
			"type":"VEC3"
		},
		{
			"bufferView":19,
			"componentType":5126,
			"count":682,
			"type":"VEC3"
		},
		{
			"bufferView":20,
			"componentType":5123,
			"count":906,
			"type":"SCALAR"
		},
		{
			"bufferView":21,
			"componentType":5126,
			"count":1132,
			"max":[
				12.17740535736084,
				9.259328842163086,
				21.021589279174805
			],
			"min":[
				-9.586114883422852,
				-8.895407676696777,
				-16.987228393554688
			],
			"type":"VEC3"
		},
		{
			"bufferView":22,
			"componentType":5126,
			"count":1132,
			"type":"VEC3"
		},
		{
			"bufferView":23,
			"componentType":5123,
			"count":1530,
			"type":"SCALAR"
		},
		{
			"bufferView":24,
			"componentType":5126,
			"count":490,
			"max":[
				8.920929908752441,
				4.852863788604736,
				9.725875854492188
			],
			"min":[
				-8.105216979980469,
				-3.0087053775787354,
				-8.598799705505371
			],
			"type":"VEC3"
		},
		{
			"bufferView":25,
			"componentType":5126,
			"count":490,
			"type":"VEC3"
		},
		{
			"bufferView":26,
			"componentType":5123,
			"count":666,
			"type":"SCALAR"
		},
		{
			"bufferView":27,
			"componentType":5126,
			"count":1326,
			"max":[
				8.895609855651855,
				4.324523448944092,
				18.44951820373535
			],
			"min":[
				-7.426527500152588,
				-4.050105571746826,
				-14.747818946838379
			],
			"type":"VEC3"
		},
		{
			"bufferView":28,
			"componentType":5126,
			"count":1326,
			"type":"VEC3"
		},
		{
			"bufferView":29,
			"componentType":5123,
			"count":1878,
			"type":"SCALAR"
		},
		{
			"bufferView":30,
			"componentType":5126,
			"count":307,
			"max":[
				5.425820350646973,
				3.778205394744873,
				1.222792625427246
			],
			"min":[
				-5.425820350646973,
				0,
				-1.2228018045425415
			],
			"type":"VEC3"
		},
		{
			"bufferView":31,
			"componentType":5126,
			"count":307,
			"type":"VEC3"
		},
		{
			"bufferView":32,
			"componentType":5126,
			"count":307,
			"type":"VEC2"
		},
		{
			"bufferView":33,
			"componentType":5123,
			"count":1584,
			"type":"SCALAR"
		},
		{
			"bufferView":34,
			"componentType":5126,
			"count":307,
			"max":[
				10.851640701293945,
				3.778205394744873,
				1.222792625427246
			],
			"min":[
				-10.851640701293945,
				0,
				-1.2228018045425415
			],
			"type":"VEC3"
		},
		{
			"bufferView":35,
			"componentType":5126,
			"count":307,
			"type":"VEC3"
		},
		{
			"bufferView":36,
			"componentType":5126,
			"count":307,
			"type":"VEC2"
		}
	],
	"bufferViews":[
		{
			"buffer":0,
			"byteLength":3360,
			"byteOffset":0,
			"target":34962
		},
		{
			"buffer":0,
			"byteLength":3360,
			"byteOffset":3360,
			"target":34962
		},
		{
			"buffer":0,
			"byteLength":3336,
			"byteOffset":6720,
			"target":34963
		},
		{
			"buffer":0,
			"byteLength":4752,
			"byteOffset":10056,
			"target":34962
		},
		{
			"buffer":0,
			"byteLength":4752,
			"byteOffset":14808,
			"target":34962
		},
		{
			"buffer":0,
			"byteLength":4728,
			"byteOffset":19560,
			"target":34963
		},
		{
			"buffer":0,
			"byteLength":1140,
			"byteOffset":24288,
			"target":34962
		},
		{
			"buffer":0,
			"byteLength":1140,
			"byteOffset":25428,
			"target":34962
		},
		{
			"buffer":0,
			"byteLength":1116,
			"byteOffset":26568,
			"target":34963
		},
		{
			"buffer":0,
			"byteLength":5940,
			"byteOffset":27684,
			"target":34962
		},
		{
			"buffer":0,
			"byteLength":5940,
			"byteOffset":33624,
			"target":34962
		},
		{
			"buffer":0,
			"byteLength":5916,
			"byteOffset":39564,
			"target":34963
		},
		{
			"buffer":0,
			"byteLength":2220,
			"byteOffset":45480,
			"target":34962
		},
		{
			"buffer":0,
			"byteLength":2220,
			"byteOffset":47700,
			"target":34962
		},
		{
			"buffer":0,
			"byteLength":2196,
			"byteOffset":49920,
			"target":34963
		},
		{
			"buffer":0,
			"byteLength":3084,
			"byteOffset":52116,
			"target":34962
		},
		{
			"buffer":0,
			"byteLength":3084,
			"byteOffset":55200,
			"target":34962
		},
		{
			"buffer":0,
			"byteLength":3060,
			"byteOffset":58284,
			"target":34963
		},
		{
			"buffer":0,
			"byteLength":8184,
			"byteOffset":61344,
			"target":34962
		},
		{
			"buffer":0,
			"byteLength":8184,
			"byteOffset":69528,
			"target":34962
		},
		{
			"buffer":0,
			"byteLength":1812,
			"byteOffset":77712,
			"target":34963
		},
		{
			"buffer":0,
			"byteLength":13584,
			"byteOffset":79524,
			"target":34962
		},
		{
			"buffer":0,
			"byteLength":13584,
			"byteOffset":93108,
			"target":34962
		},
		{
			"buffer":0,
			"byteLength":3060,
			"byteOffset":106692,
			"target":34963
		},
		{
			"buffer":0,
			"byteLength":5880,
			"byteOffset":109752,
			"target":34962
		},
		{
			"buffer":0,
			"byteLength":5880,
			"byteOffset":115632,
			"target":34962
		},
		{
			"buffer":0,
			"byteLength":1332,
			"byteOffset":121512,
			"target":34963
		},
		{
			"buffer":0,
			"byteLength":15912,
			"byteOffset":122844,
			"target":34962
		},
		{
			"buffer":0,
			"byteLength":15912,
			"byteOffset":138756,
			"target":34962
		},
		{
			"buffer":0,
			"byteLength":3756,
			"byteOffset":154668,
			"target":34963
		},
		{
			"buffer":0,
			"byteLength":3684,
			"byteOffset":158424,
			"target":34962
		},
		{
			"buffer":0,
			"byteLength":3684,
			"byteOffset":162108,
			"target":34962
		},
		{
			"buffer":0,
			"byteLength":2456,
			"byteOffset":165792,
			"target":34962
		},
		{
			"buffer":0,
			"byteLength":3168,
			"byteOffset":168248,
			"target":34963
		},
		{
			"buffer":0,
			"byteLength":3684,
			"byteOffset":171416,
			"target":34962
		},
		{
			"buffer":0,
			"byteLength":3684,
			"byteOffset":175100,
			"target":34962
		},
		{
			"buffer":0,
			"byteLength":2456,
			"byteOffset":178784,
			"target":34962
		}
	],
	"buffers":[
		{
			"byteLength":181240,
			"uri":"SM_ENV_.bin"
		}
	]
}
